<?xml version="1.0" standalone="no"?>
<!DOCTYPE svg PUBLIC "-//W3C//DTD SVG 20010904//EN"
 "http://www.w3.org/TR/2001/REC-SVG-20010904/DTD/svg10.dtd">
<svg version="1.0" xmlns="http://www.w3.org/2000/svg"
 width="596.000000pt" height="574.000000pt" viewBox="0 0 596.000000 574.000000"
 preserveAspectRatio="xMidYMid meet">

<g transform="translate(0.000000,574.000000) scale(0.100000,-0.100000)"
fill="#000000" stroke="none">
<path d="M2796 4934 c-44 -13 -99 -24 -123 -24 -45 0 -57 -14 -22 -25 28 -9
10 -21 -43 -30 -38 -7 -44 -25 -7 -25 10 0 19 -4 19 -8 0 -11 -46 -32 -70 -32
-31 0 -12 -29 23 -35 l32 -6 -3 -74 c-6 -135 11 -229 59 -323 24 -46 51 -88
61 -93 9 -5 52 -14 95 -20 l78 -11 31 34 c52 58 104 157 145 278 44 130 49
195 20 231 -14 17 -17 29 -10 46 5 14 5 23 -1 23 -5 0 -10 17 -12 38 l-4 37
-13 -30 c-12 -28 -14 -28 -21 -10 -11 29 -43 55 -87 71 -50 17 -54 17 -147
-12z" fill="#e02041"/>
<path d="M3923 4546 c-119 -39 -198 -143 -267 -354 -26 -77 -31 -85 -87 -128
-81 -62 -93 -82 -87 -146 4 -38 11 -57 28 -70 23 -19 23 -19 6 -67 -19 -55
-12 -87 29 -125 l26 -24 -27 -64 c-30 -72 -118 -223 -167 -286 l-33 -43 16
-136 c14 -129 16 -136 40 -146 14 -5 88 -12 166 -15 183 -6 233 7 311 81 62
58 144 169 221 298 l51 86 -26 91 c-15 50 -24 94 -21 98 4 3 22 1 42 -6 50
-16 106 1 145 45 41 47 41 99 1 193 -35 83 -37 109 -10 180 81 212 9 439 -164
517 -66 31 -139 38 -193 21z"/>
<path d="M1572 4338 c-7 -7 -12 -24 -12 -40 l0 -27 -36 24 c-20 14 -45 25 -55
25 -29 0 -34 -44 -12 -104 l20 -54 -33 14 c-18 8 -40 11 -48 8 -24 -9 -20 -60
5 -78 20 -14 21 -18 10 -79 -20 -116 -15 -175 23 -252 18 -39 48 -84 65 -102
18 -17 28 -33 24 -36 -14 -8 -117 -35 -170 -45 l-52 -9 -11 31 c-18 51 -23
166 -11 249 35 248 -86 427 -288 429 -86 0 -164 -60 -219 -167 -30 -60 -40
-108 -51 -240 -9 -110 -28 -190 -58 -240 -10 -18 -13 -18 -38 -5 -63 34 -205
182 -262 273 -70 113 -144 254 -173 327 -12 30 -23 57 -25 59 -2 2 -19 -6 -38
-18 l-35 -21 15 -78 c22 -122 79 -316 118 -399 43 -94 111 -178 286 -358 144
-148 181 -204 244 -370 l24 -65 -25 -48 c-23 -41 -25 -56 -21 -117 l5 -69 -62
-68 c-123 -135 -178 -263 -178 -412 0 -52 7 -115 16 -146 9 -30 26 -94 37
-142 l21 -87 47 -15 c67 -22 148 -35 264 -42 123 -8 247 11 386 58 l94 32 -6
216 c-6 236 -27 390 -71 520 -14 41 -26 76 -26 77 0 0 20 13 44 27 24 14 70
50 102 81 32 30 61 51 65 47 3 -4 33 -48 66 -97 82 -123 80 -122 139 -82 66
43 251 229 353 354 72 88 90 105 125 114 23 6 82 23 133 39 l92 28 5 -42 c3
-22 12 -106 21 -185 9 -80 17 -147 20 -149 7 -7 80 20 159 61 181 93 399 298
563 527 l75 105 -7 152 -7 152 44 48 c113 124 206 240 197 247 -33 26 -217
165 -227 170 -8 5 -46 -23 -107 -79 -52 -48 -95 -90 -95 -94 0 -3 18 -14 39
-25 22 -10 57 -36 78 -58 36 -37 38 -42 38 -101 -1 -34 -5 -70 -10 -79 -9 -15
-15 -13 -58 20 -34 26 -47 43 -47 62 -1 38 -35 106 -64 125 -24 16 -28 15 -90
-15 -56 -28 -74 -32 -120 -28 -29 2 -78 16 -107 31 -52 25 -59 25 -179 20
l-125 -6 -36 -38 c-23 -23 -45 -61 -58 -101 -24 -69 -51 -227 -51 -297 l0 -43
-87 6 c-49 4 -109 9 -135 12 -45 5 -48 7 -42 30 9 34 -20 64 -60 64 -17 0 -56
-7 -86 -15 -30 -8 -56 -15 -57 -15 -1 0 16 26 37 57 44 62 64 119 76 209 4 33
15 70 25 83 27 35 24 60 -10 74 -24 10 -27 16 -20 30 8 14 6 17 -12 17 -15 0
-19 4 -15 16 14 38 -33 100 -91 118 -20 6 -23 4 -23 -20 l0 -28 -28 27 c-25
24 -77 47 -107 47 -6 0 -16 -5 -23 -12z m-873 -711 c-7 -15 -16 -24 -20 -21
-5 3 -1 16 7 30 21 31 29 25 13 -9z m571 -39 c0 -5 -4 -8 -10 -8 -5 0 -10 10
-10 23 0 18 2 19 10 7 5 -8 10 -18 10 -22z"/>
<path d="M4545 4311 c-92 -43 -171 -139 -205 -249 -30 -98 -25 -306 9 -326 4
-3 73 -19 152 -36 79 -17 151 -33 161 -36 25 -7 130 95 166 164 91 171 75 370
-37 441 -96 62 -175 75 -246 42z"/>
<path d="M4745 3474 c-76 -29 -221 -54 -342 -61 -68 -3 -123 -8 -123 -10 0 -2
8 -15 17 -29 47 -72 -5 -210 -137 -362 l-79 -90 -7 -71 c-3 -39 -9 -71 -13
-71 -3 0 -18 20 -33 44 l-26 43 -73 -36 c-71 -35 -75 -36 -183 -35 -72 1 -148
10 -216 24 -58 13 -114 23 -125 24 -15 1 -35 -21 -74 -81 -30 -46 -55 -82 -57
-80 -1 1 -8 103 -14 227 -7 124 -15 227 -17 229 -2 3 -18 -9 -36 -26 -84 -80
-299 -247 -359 -278 -119 -63 -269 -89 -373 -65 -22 5 -40 8 -41 7 -1 -1 7
-74 17 -162 11 -88 21 -221 24 -295 l4 -135 -10 105 c-5 58 -16 134 -25 170
-14 58 -164 412 -185 434 -4 5 -42 -16 -86 -46 -180 -126 -426 -289 -449 -298
l-24 -10 26 -51 c53 -106 51 -139 -41 -637 -69 -377 -85 -485 -85 -565 0 -124
45 -423 110 -738 17 -79 38 -179 47 -222 9 -42 20 -77 24 -77 5 0 38 12 73 26
45 18 66 32 70 47 3 12 6 233 5 492 l0 470 88 317 c48 174 89 315 91 313 2 -2
-2 -149 -9 -327 -9 -252 -10 -361 0 -498 15 -220 62 -774 66 -779 2 -2 31 0
64 4 l60 7 6 41 c2 23 34 247 70 497 35 250 69 514 76 585 15 180 25 192 32
45 4 -69 29 -305 57 -525 27 -220 55 -460 62 -533 l12 -134 36 6 c19 3 60 6
91 6 l57 0 6 147 c31 669 91 1599 113 1728 l7 40 7 -45 c7 -42 107 -703 204
-1345 24 -159 50 -332 56 -382 7 -51 15 -97 18 -102 4 -5 40 -6 86 -3 l80 7
11 365 c6 201 11 362 12 358 1 -4 25 -112 52 -240 28 -128 55 -244 61 -257 9
-22 14 -23 84 -19 41 2 79 8 84 13 5 6 21 197 35 425 15 228 28 415 30 417 1
1 10 -46 19 -105 64 -414 119 -738 126 -745 16 -16 85 -19 126 -5 46 15 43 8
69 231 19 164 21 458 3 543 l-13 61 236 6 c290 8 428 31 444 73 3 9 13 60 21
113 63 434 33 781 -90 1003 -41 75 -80 217 -71 260 3 16 13 54 22 84 l16 56
18 -28 c24 -39 49 -60 94 -79 53 -23 97 -12 145 33 46 44 57 78 43 130 -6 20
-17 56 -24 80 -10 34 -10 47 0 60 73 103 90 174 55 233 -28 48 -160 78 -228
53z m-25 -179 c7 -20 8 -49 4 -68 l-7 -32 -17 50 c-9 28 -20 63 -24 78 -6 26
-5 27 13 18 11 -6 25 -27 31 -46z"/>
<path d="M157 2466 c-26 -158 -23 -211 19 -333 32 -94 37 -123 49 -292 16
-221 16 -220 69 -336 l40 -90 1 -140 1 -140 43 -100 c24 -55 46 -121 50 -147
l6 -47 39 73 38 74 -41 220 c-23 122 -48 279 -55 350 -12 103 -22 148 -52 223
-24 63 -46 146 -65 254 -15 88 -42 204 -59 259 -16 54 -29 108 -29 120 1 20 2
20 6 1 2 -11 18 -62 34 -113 16 -50 43 -167 60 -259 20 -109 42 -196 63 -248
41 -100 44 -110 56 -237 10 -95 87 -538 95 -546 2 -2 9 7 16 20 7 12 32 49 57
81 l44 58 -36 59 c-87 141 -101 201 -70 307 28 97 17 156 -49 265 -72 119 -91
176 -117 346 -23 156 -41 226 -76 294 -24 47 -95 128 -112 128 -5 0 -16 -47
-25 -104z"/>
<path d="M5358 1920 c-79 -42 -105 -81 -212 -314 -20 -43 -50 -96 -67 -117
-50 -63 -99 -47 -99 31 0 17 -4 40 -10 50 -10 20 -74 45 -89 36 -4 -3 0 -34 9
-70 10 -35 33 -145 51 -244 l32 -179 47 96 c108 220 278 481 396 606 l66 70
-60 -70 c-85 -100 -162 -210 -252 -361 -84 -140 -184 -333 -177 -340 2 -3 25
4 50 15 107 46 412 123 476 120 19 -1 21 -2 6 -6 -195 -40 -283 -63 -400 -100
-77 -25 -142 -47 -144 -49 -2 -2 -37 -101 -77 -219 l-73 -216 28 -78 27 -78
-23 -36 c-12 -20 -31 -41 -42 -46 -16 -9 -20 -6 -25 22 l-7 32 -15 -30 -14
-30 6 38 c5 34 0 43 -45 98 -28 34 -51 58 -51 55 0 -4 16 -38 36 -77 19 -39
33 -74 30 -77 -3 -3 -29 43 -57 102 -44 92 -69 127 -166 239 -64 73 -119 133
-123 135 -9 3 -25 -91 -21 -128 18 -185 102 -378 215 -495 25 -27 45 -49 43
-50 -115 -80 -149 -123 -89 -111 15 2 49 8 75 11 27 4 67 14 90 22 23 9 94 19
157 23 196 12 354 81 504 221 141 132 207 252 185 334 -13 47 -38 71 -86 84
-46 12 -90 3 -160 -32 -92 -47 -173 -30 -173 37 0 50 31 81 142 138 56 28 133
77 173 109 108 86 138 148 96 200 -16 20 -30 24 -111 28 -85 6 -94 8 -116 34
-18 21 -22 33 -15 45 5 9 54 62 108 117 154 158 208 271 166 352 -36 69 -137
94 -215 53z m-111 -1321 c-159 -66 -293 -119 -299 -117 -11 4 68 38 377 164
99 41 187 74 195 74 8 0 -115 -55 -273 -121z"/>
<path d="M4822 1566 c-42 -48 -48 -99 -34 -281 18 -220 16 -267 -9 -299 -14
-17 -30 -26 -50 -26 -16 0 -29 -2 -29 -5 0 -3 17 -40 38 -83 22 -42 49 -103
62 -134 l23 -57 70 202 c38 111 69 211 69 222 -1 38 -92 479 -101 488 -4 4
-22 -8 -39 -27z"/>
<path d="M10 1474 c0 -82 22 -161 80 -284 54 -113 58 -143 41 -252 -13 -76 -1
-114 65 -210 64 -94 67 -119 27 -225 -22 -58 -34 -76 -60 -90 -31 -17 -33 -21
-33 -73 1 -105 18 -234 35 -246 14 -10 176 -40 254 -46 47 -4 49 14 4 47 -57
42 -103 87 -103 102 0 9 9 7 33 -6 44 -26 72 -30 231 -36 l138 -5 28 30 c41
44 64 121 64 211 0 71 -4 83 -61 205 -33 71 -66 145 -72 166 l-12 36 -44 -47
-45 -48 30 -154 c17 -85 29 -161 29 -169 -1 -11 -64 274 -69 309 0 4 -82 -86
-138 -155 l-45 -55 25 -85 c30 -101 21 -100 -12 0 l-23 70 -28 -55 -28 -54 -1
37 c0 31 -5 40 -29 53 -17 8 -32 19 -36 24 -3 6 10 30 29 55 19 25 37 54 41
65 3 12 -13 80 -39 163 -25 79 -50 172 -56 208 -8 44 -22 82 -45 117 -19 29
-44 85 -55 124 -11 40 -33 101 -50 137 -16 35 -30 69 -30 76 0 24 69 -133 90
-204 12 -41 37 -99 56 -128 21 -33 39 -75 45 -110 10 -54 70 -267 91 -322 9
-24 11 -22 34 35 19 46 22 65 15 85 -5 14 -12 64 -14 111 -3 48 -11 99 -18
115 -8 15 -39 46 -69 67 -63 44 -72 58 -95 147 -22 88 -74 194 -129 265 l-46
58 0 -59z m637 -1146 c-3 -7 -5 -2 -5 12 0 14 2 19 5 13 2 -7 2 -19 0 -25z"/>
<path d="M3945 297 c-35 -11 -40 -17 -47 -52 -5 -22 -7 -62 -6 -90 l3 -50 72
-3 c48 -2 82 2 100 11 15 8 57 18 93 22 99 10 100 10 100 58 0 58 -12 72 -55
69 -20 -2 -35 1 -35 7 0 21 -32 10 -57 -19 -32 -38 -43 -35 -58 16 -9 33 -15
39 -40 41 -17 1 -48 -4 -70 -10z"/>
<path d="M3621 274 c-31 -19 -45 -23 -51 -15 -4 8 -27 -9 -67 -50 l-60 -62
-31 67 c-35 74 -50 81 -94 39 -27 -26 -27 -26 -70 -10 -24 10 -47 17 -50 17
-16 0 -31 -48 -39 -119 -10 -85 -5 -117 19 -126 24 -9 264 16 281 29 8 6 72
23 144 38 71 15 134 31 138 35 5 5 -2 47 -14 93 -26 99 -37 106 -106 64z"/>
<path d="M1894 213 c-45 -43 -48 -44 -55 -24 -13 33 -41 25 -87 -23 -48 -51
-95 -71 -202 -89 -64 -11 -75 -16 -78 -33 -4 -25 28 -34 114 -34 70 0 338 29
387 41 33 9 37 13 37 41 0 41 -39 155 -55 162 -7 2 -34 -16 -61 -41z"/>
<path d="M2574 234 c-21 -31 -54 -148 -54 -190 0 -18 6 -34 13 -37 6 -2 72 -2
145 1 163 6 163 5 137 126 -10 45 -22 89 -27 99 -11 21 -46 22 -72 2 -26 -20
-43 -19 -73 5 -34 26 -49 25 -69 -6z"/>
<path d="M2171 217 c-15 -19 -61 -144 -61 -167 0 -30 44 -43 126 -36 83 6 119
18 128 41 8 21 -22 145 -40 164 -11 13 -17 13 -39 1 -19 -10 -30 -11 -50 -2
-34 15 -50 15 -64 -1z"/>
<path d="M1160 194 c-27 -17 -60 -84 -60 -122 0 -41 110 -69 161 -42 16 9 19
22 19 80 0 49 -4 73 -16 84 -20 20 -72 20 -104 0z"/>
</g>
</svg>
